#!OML:ASF H:\Terrain\Patient Classification 1\Walking\liu\liu.ASF
:FULLY-SPECIFIED
:DEGREES
190
root 9.1213 16.6929 6.35463 8.57602 -6.26139 -7.93511
lowerback -6.63321 3.2193 4.90156
upperback -0.923331 3.82998 3.30861
thorax 2.8537 1.94032 1.02504
lowerneck -23.3492 -3.99638 -12.4689
upperneck 23.9451 -4.59189 12.2302
head 12.4003 -1.60516 6.02598
rclavicle -4.12354e-014 -9.54166e-015
rhumerus -18.7484 26.581 -82.1627
rradius 47.0984
rwrist -21.3237
rhand -29.6119 -26.7307
rfingers 7.12502
rthumb -2.9427 -56.6901
lclavicle -4.12354e-014 -9.54166e-015
lhumerus -54.3046 17.6887 63.0743
lradius 5.48513
lwrist -33.8912
lhand -11.1968 -20.295
lfingers 7.12502
lthumb 14.8309 9.15428
rfemur 19.0144 0.313213 30.4543
rtibia 0
rfoot 1.00356 10.3752
rtoes -15.4094
lfemur -41.2265 2.76573 -12.331
ltibia 18.8622
lfoot -11.5084 10.5824
ltoes -15.3398
191
root 9.13698 16.674 6.59525 8.50969 -6.22683 -7.58955
lowerback -6.65666 3.19111 4.4976
upperback -1.03142 3.82955 3.19937
thorax 2.73576 1.93483 1.13203
lowerneck -23.1813 -3.98463 -12.5807
upperneck 23.993 -4.60437 12.3882
head 12.3954 -1.6063 6.10851
rclavicle -3.14577e-014 -2.14687e-014
rhumerus -19.0186 26.4038 -82.2419
rradius 47.3797
rwrist -21.2255
rhand -29.8241 -26.6222
rfingers 7.12502
rthumb -3.1476 -56.5787
lclavicle -3.14577e-014 -2.14687e-014
lhumerus -54.607 17.2984 63.0734
lradius 4.93634
lwrist -33.4114
lhand -11.4849 -20.2591
lfingers 7.12502
lthumb 14.5533 9.21038
rfemur 19.8053 0.316652 29.8238
rtibia 1.90833e-014
rfoot 2.3897 10.0316
rtoes -14.1055
lfemur -41.1388 4.81615 -14.2445
ltibia 20.1083
lfoot -10.0076 8.10845
ltoes -15.8534
192
root 9.14849 16.672 6.83906 8.39891 -6.34032 -7.36274
lowerback -6.72402 3.21686 4.17343
upperback -0.981223 3.88333 3.10856
thorax 2.81104 1.96026 1.22879
lowerneck -23.1825 -4.03183 -12.8465
upperneck 23.9722 -4.69685 12.8145
head 12.423 -1.61862 6.31217
rclavicle 3.44146e-015 -2.20651e-014
rhumerus -18.9788 26.1467 -82.2588
rradius 47.4305
rwrist -21.064
rhand -30.1975 -27.093
rfingers 7.12502
rthumb -3.50821 -57.0439
lclavicle 3.44146e-015 -2.20651e-014
lhumerus -54.6408 17.0367 63.1263
lradius 4.40779
lwrist -33.3843
lhand -11.7697 -20.0256
lfingers 7.12502
lthumb 14.279 9.46343
rfemur 20.571 0.468202 29.3164
rtibia -1.27222e-014
rfoot 4.03157 9.57279
rtoes -13.2768
lfemur -41.0591 6.06803 -15.3775
ltibia 21.2794
lfoot -6.26443 5.60565
ltoes -10.1382
193
root 9.15995 16.6809 7.08485 8.19662 -6.45168 -7.29733
lowerback -6.71208 3.24882 4.06002
upperback -0.83782 3.93014 3.04961
thorax 2.95008 1.98494 1.24044
lowerneck -23.5694 -4.07808 -12.8019
upperneck 24.1006 -4.74991 12.8379
head 12.5595 -1.6253 6.31671
rclavicle 2.168e-014 2.22639e-014
rhumerus -18.9248 25.7821 -82.2965
rradius 47.554
rwrist -20.8618
rhand -30.6402 -26.9061
rfingers 7.12502
rthumb -3.93568 -56.8495
lclavicle 2.168e-014 2.22639e-014
lhumerus -54.5265 16.9172 63.2491
lradius 4.04552
lwrist -32.9136
lhand -11.6068 -19.6594
lfingers 7.12502
lthumb 14.4359 9.81855
rfemur 21.4841 0.622422 28.9994
rtibia -4.77083e-014
rfoot 5.50406 9.42035
rtoes -15.23
lfemur -41.143 6.26127 -15.5418
ltibia 22.4797
lfoot -4.63075 6.16421
ltoes -15.4956
194
root 9.17328 16.6784 7.32294 7.99778 -6.40436 -7.23247
lowerback -6.47555 3.17551 3.89989
upperback -0.845876 3.86079 3.03185
thorax 2.79957 1.94801 1.28868
lowerneck -23.8513 -4.03697 -12.663
upperneck 24.2601 -4.7145 12.8097
head 12.6688 -1.59334 6.29979
rclavicle 4.84538e-016 1.92821e-014
rhumerus -19.2323 25.5423 -82.5114
rradius 47.8608
rwrist -20.8113
rhand -30.8778 -25.922
rfingers 7.12502
rthumb -4.16514 -55.861
lclavicle 4.84538e-016 1.92821e-014
lhumerus -54.8075 16.9162 63.3389
lradius 4.11644
lwrist -32.056
lhand -11.0905 -19.3015
lfingers 7.12502
lthumb 14.9333 10.1402
rfemur 22.3961 0.6186 28.7433
rtibia 6.99722e-014
rfoot 6.82931 9.39781
rtoes -17.5959
lfemur -41.392 6.24388 -15.5364
ltibia 23.7549
lfoot -2.41477 6.11313
ltoes -11.1293
195
root 9.18193 16.6708 7.55958 7.78988 -6.24328 -6.86978
lowerback -6.13691 3.07011 3.33658
upperback -1.02254 3.79051 2.95614
thorax 2.3959 1.90551 1.48786
lowerneck -23.6818 -3.98939 -12.6328
upperneck 24.3049 -4.71617 12.9197
head 12.6555 -1.58222 6.3401
rclavicle -1.80149e-015 -1.11319e-014
rhumerus -19.833 25.4425 -82.8073
rradius 47.9837
rwrist -20.9256
rhand -30.9692 -25.7654
rfingers 7.12502
rthumb -4.25338 -55.7027
lclavicle -1.80149e-015 -1.11319e-014
lhumerus -55.098 16.7064 63.4236
lradius 3.80278
lwrist -31.9407
lhand -11.0185 -19.0963
lfingers 7.12502
lthumb 15.0027 10.3402
rfemur 23.1951 0.474641 28.189
rtibia -4.13472e-014
rfoot 8.71288 9.01225
rtoes -18.0405
lfemur -41.3706 6.35898 -16.0252
ltibia 25.0208
lfoot -0.0895788 5.78427
ltoes -13.8743
